<svg width="122" height="278" viewBox="0 0 122 278" fill="none" xmlns="http://www.w3.org/2000/svg">
<g id="body">
<path id="Vector" d="M72.625 264.802L67.289 266.273L46.3228 201.426L61.7075 198.85L72.625 264.802Z" fill="#9F616A"/>
<path id="Vector_2" d="M9.99549 265.174L4.71857 264.076L18.3692 197.624L33.2128 202.321L9.99549 265.174Z" fill="#9F616A"/>
<path id="Vector_3" d="M66.1946 277.398C67.6557 278.046 68.8796 274.032 70.1121 275.208C73.5595 278.498 81.8296 277.761 81.8296 277.761C82.1072 277.674 82.3639 277.534 82.584 277.348C82.8041 277.162 82.9831 276.935 83.1101 276.68C83.237 276.425 83.3094 276.147 83.3228 275.864C83.3362 275.581 83.2903 275.299 83.1878 275.033C83.0653 274.716 82.8652 274.432 82.6048 274.206C82.3443 273.981 82.0313 273.82 81.6927 273.738L78.0264 272.847L72.2698 263.015L65.9961 262.244L65.8376 262.495C64.6248 264.394 63.8428 266.522 63.5439 268.737C63.245 270.952 63.436 273.204 64.1042 275.342C64.6259 276.966 65.3361 277.017 66.1946 277.398Z" fill="#2F2E41"/>
<path id="Vector_4" d="M2.33061 274.537C3.64525 275.434 5.6038 271.704 6.59417 273.08C9.36438 276.927 17.634 277.669 17.634 277.669C17.9233 277.633 18.2021 277.541 18.4534 277.397C18.7048 277.253 18.9236 277.062 19.0964 276.834C19.2692 276.605 19.3926 276.345 19.459 276.07C19.5254 275.794 19.5334 275.508 19.4827 275.229C19.4219 274.895 19.2786 274.58 19.065 274.312C18.8514 274.044 18.5739 273.831 18.2565 273.69L14.8195 272.164L11.0099 261.475L4.98694 259.603L4.7838 259.822C3.23416 261.474 2.06495 263.427 1.35422 265.552C0.643496 267.677 0.407605 269.925 0.662261 272.145C0.869705 273.834 1.55817 274.011 2.33061 274.537Z" fill="#2F2E41"/>
<path id="Vector_5" d="M54.8438 152.03C57.6537 156.227 60.3773 160.466 61.5824 165.29C64.4959 177.097 66.5764 189.084 67.8093 201.167C58.0468 206.607 49.5771 209.73 41.3035 210.268C40.9188 210.293 40.5347 210.31 40.1508 210.324L37.1346 193.786L34.7287 210.142C33.5373 210.019 32.3442 209.843 31.1452 209.609C25.9587 208.598 20.6779 206.534 15.0352 203.363C13.0123 195.548 12.163 187.49 12.5135 179.439C12.9771 168.672 15.4838 159.454 17.9112 152.052L54.8438 152.03Z" fill="#175B53"/>
<path id="Vector_6" d="M34.1213 103.27L20.8586 98.8908C25.6566 94.329 27.6161 89.3203 25.6332 83.6909L40.4874 86.2672C36.9627 92.865 32.3478 96.8378 34.1213 103.27Z" fill="#9F616A"/>
<path id="Vector_7" d="M54.8438 152.03C42.7794 161.351 30.4967 162.426 17.9112 152.052C22.9847 136.581 12.6342 122.032 14.1419 111.05C15.0825 104.198 18.0167 95.7104 24.8392 93.7371L32.1667 95.9117C34.7084 96.665 37.0084 98.0395 38.8465 99.9036C40.6846 101.768 41.9991 104.059 42.6642 106.558L43.5312 109.834C47.7264 114.169 49.1248 119.865 48.0355 126.781C48.9552 128.743 48.533 131.218 48.1109 133.696C47.7113 136.054 47.3118 138.415 48.0656 140.337C49.6879 144.469 52.3012 148.233 54.8438 152.03" fill="#39CBA8"/>
<path id="Vector_8" d="M36.7739 92.1926C43.3661 92.1926 48.7103 87.0021 48.7103 80.5994C48.7103 74.1967 43.3661 69.0063 36.7739 69.0063C30.1816 69.0063 24.8375 74.1967 24.8375 80.5994C24.8375 87.0021 30.1816 92.1926 36.7739 92.1926Z" fill="#9F616A"/>
<path id="Vector_9" d="M53.2444 175.147C51.9156 175.145 50.627 174.704 49.5905 173.896C48.5541 173.088 47.8315 171.962 47.5417 170.702L46.8469 167.664L58.2538 165.203L58.9484 168.241C59.2844 169.71 59.0058 171.249 58.1738 172.518C57.3419 173.788 56.0247 174.685 54.5121 175.011V175.011C54.0959 175.101 53.6708 175.147 53.2444 175.147V175.147ZM47.7461 168.221L48.2775 170.544C48.4224 171.177 48.6944 171.777 49.078 172.308C49.4615 172.84 49.9491 173.293 50.5129 173.641C51.0766 173.99 51.7055 174.227 52.3636 174.339C53.0218 174.452 53.6963 174.437 54.3486 174.296C55.0009 174.155 55.6183 173.891 56.1655 173.519C56.7127 173.146 57.179 172.673 57.5378 172.125C57.8965 171.578 58.1408 170.967 58.2565 170.328C58.3722 169.688 58.3572 169.033 58.2122 168.4L57.6811 166.077L47.7461 168.221Z" fill="#625F88"/>
<path id="Vector_10" d="M48.6668 75.754C48.6668 75.754 50.583 61.2701 34.9481 66.0197C34.9481 66.0197 23.7816 64.0297 20.1196 77.5957L16.4117 91.8162L18.2188 90.8609L19.0612 92.6495L21.9895 93.3697L23.2426 90.9541L23.8488 93.8876L47.8332 96.2099C47.8332 96.2099 37.0911 90.0397 36.9207 78.9814L38.9669 81.0814L48.6668 75.754Z" fill="#2F2E41"/>
</g>
<g id="hand">
<path id="Vector_11" d="M97.2851 43.8604C104.398 40.0317 111.623 35.929 116.648 29.7198C121.897 23.2353 124.138 13.5366 119.273 6.77523C115.187 1.09564 107.051 -0.901355 100.12 0.740022C93.1893 2.3814 87.3871 7.05776 82.8807 12.4291C84.3553 5.82719 77.1865 -0.547309 70.2571 0.0373546C63.3278 0.622018 57.768 6.50437 55.9178 13.0164C54.0676 19.5285 55.2714 26.4974 57.2567 32.9718C60.5996 43.8276 66.0627 53.9569 73.3479 62.8069C74.465 60.8413 75.815 59.0094 77.3704 57.3484C82.8411 51.5047 90.1725 47.689 97.2851 43.8604Z" fill="#F92A2A"/>
<path id="Vector_12" d="M76.5607 67.1402C67.253 57.1729 60.4359 45.2561 56.6388 32.3151C54.6872 25.5928 53.544 17.9497 56.4686 11.3175C58.7307 6.18789 63.5518 1.54672 69.5282 1.11704C75.8352 0.663611 82.8367 6.33605 81.4857 12.8224C81.3848 13.3068 82.0417 13.8178 82.4307 13.3567C87.479 7.37204 94.4184 1.85935 102.688 1.31894C110.054 0.837617 117.791 4.41247 119.936 11.6796C122.171 19.2489 118.315 27.2567 112.916 32.6091C106.926 38.5465 99.1291 42.2503 91.7699 46.294C84.529 50.2727 77.1644 54.8671 72.7108 61.9001C70.5949 65.1531 69.2873 68.8396 68.8915 72.668C68.5417 76.6197 69.5595 80.3561 71.5292 83.802C73.6213 87.4621 76.2085 90.7987 78.0978 94.578C79.9559 98.3131 81.3692 102.242 82.3104 106.288C84.2114 114.354 84.2239 122.731 82.3471 130.801C78.8753 145.51 68.7457 158.456 55.2644 165.904C53.6355 166.802 51.9609 167.619 50.2472 168.354C49.583 168.639 50.1577 169.585 50.8179 169.302C57.9591 166.189 64.3787 161.706 69.6912 156.123C75.0037 150.54 79.0995 143.972 81.7325 136.812C87.4361 121.087 85.2495 102.968 76.1254 88.8705C73.7375 85.181 70.979 81.6031 70.1927 77.2076C69.4721 73.1797 70.3595 68.978 72.1106 65.3035C75.8607 57.4343 83.2936 52.3189 90.8016 48.0972C98.3077 43.8765 106.326 40.2211 112.687 34.3669C118.35 29.1554 122.527 21.7194 121.547 13.9293C121.142 10.3693 119.436 7.06852 116.738 4.6268C114.018 2.30377 110.644 0.825642 107.051 0.383119C99.0347 -0.714518 91.5206 2.97937 85.8072 8.20091C84.3193 9.57159 82.9244 11.0344 81.6311 12.5801L82.5761 13.1144C83.7956 7.25966 79.0037 1.8809 73.3928 0.400147C67.291 -1.21016 61.2422 2.25439 57.7262 6.95123C53.3343 12.818 52.9751 20.3417 54.2589 27.2592C55.5906 34.4351 58.3477 41.4605 61.6964 47.9662C65.43 55.206 70.1617 61.9179 75.7611 67.9168C76.2507 68.4418 77.0484 67.6632 76.5607 67.1402L76.5607 67.1402Z" fill="#3F3D56"/>
<path id="Vector_13" d="M77.7616 146.608L69.3999 143.95L70.0099 137.433L79.1911 137.235C79.9154 137.219 80.6343 137.358 81.2972 137.642C81.9601 137.926 82.5507 138.348 83.0274 138.877C83.5041 139.407 83.8552 140.032 84.056 140.708C84.2567 141.384 84.3022 142.095 84.1893 142.79V142.79C84.0775 143.477 83.8134 144.133 83.4153 144.711C83.0171 145.29 82.4944 145.777 81.8832 146.14C81.272 146.504 80.5869 146.733 79.8753 146.814C79.1637 146.895 78.4425 146.825 77.7616 146.608V146.608Z" fill="#9F616A"/>
<path id="Vector_14" d="M70.9915 146.036C59.6679 148.473 50.404 149.934 42.8747 144.748C30.9336 131.26 24.1471 117.719 26.6872 104.082C26.923 102.854 27.5122 101.716 28.3867 100.799C29.2612 99.883 30.3852 99.226 31.6284 98.9046V98.9046C33.2599 98.4764 34.9968 98.6492 36.5049 99.3899C38.0131 100.131 39.186 101.387 39.7979 102.917L48.8195 132.283L72.1892 136.676L70.9915 146.036Z" fill="#2F2E41"/>
</g>
</svg>
