<svg width="344" height="342" viewBox="0 0 344 342" fill="none" xmlns="http://www.w3.org/2000/svg">
<g id="undraw_party_lqnv 1" clip-path="url(#clip0)">
<path id="Vector" d="M157.019 95.727C157.019 95.727 161.17 104.771 152.623 106.437C144.076 108.103 162.635 116.432 162.635 116.432L177.043 114.052L184.369 108.579C184.369 108.579 169.717 100.011 171.671 93.3471C173.624 86.6832 157.019 95.727 157.019 95.727Z" fill="#FFB8B8"/>
<path id="Vector_2" d="M164.345 96.2933C176.401 96.2933 186.175 86.7682 186.175 75.0184C186.175 63.2686 176.401 53.7435 164.345 53.7435C152.288 53.7435 142.515 63.2686 142.515 75.0184C142.515 86.7682 152.288 96.2933 164.345 96.2933Z" fill="#FF6584"/>
<path id="Vector_3" d="M124.784 223.53C124.784 223.53 127.958 253.041 127.226 255.183C126.493 257.325 128.691 291.12 128.691 291.12L142.611 288.026C142.611 288.026 144.686 270.295 142.977 252.922C142.977 252.922 148.105 236.5 143.221 226.98C138.337 217.461 124.784 223.53 124.784 223.53Z" fill="#FFB8B8"/>
<path id="Vector_4" d="M167.886 234.834C167.886 234.834 174.968 255.302 179.363 259.585C179.363 259.585 185.835 289.93 192.428 291.12C199.022 292.31 204.882 285.646 204.882 285.646C204.882 285.646 197.312 258.277 192.672 253.993L187.056 231.621L167.886 234.834Z" fill="#FFB8B8"/>
<path id="Vector_5" d="M144.32 285.17H127.226L129.179 304.923C129.179 304.923 130.4 323.011 128.447 325.867C126.493 328.723 124.784 342.053 131.621 341.577C138.459 341.101 141.634 337.766 141.634 336.338C141.634 334.91 142.366 318.489 144.076 315.633C145.785 312.777 145.785 306.351 142.855 305.399C139.924 304.447 144.32 285.17 144.32 285.17Z" fill="#2F2E41"/>
<path id="Vector_6" d="M188.765 289.216L198.533 306.113C198.533 306.113 196.824 311.111 199.022 314.919C201.219 318.727 201.708 325.867 201.708 328.723C201.708 331.579 205.127 342.528 212.697 341.576C220.267 340.624 217.093 331.579 217.093 331.579L211.232 308.731L204.882 283.028L188.765 289.216Z" fill="#2F2E41"/>
<path id="Vector_7" d="M128.513 127L125.827 143.659L108 181.738L124.85 185.784L136.327 128.904L128.513 127Z" fill="#FFB8B8"/>
<path id="Vector_8" d="M164.223 100.844C173.124 100.844 180.34 93.8113 180.34 85.1363C180.34 76.4612 173.124 69.4287 164.223 69.4287C155.321 69.4287 148.105 76.4612 148.105 85.1363C148.105 93.8113 155.321 100.844 164.223 100.844Z" fill="#FFB8B8"/>
<path id="Vector_9" d="M191.451 111.197L182.341 107.29C182.341 107.29 168.74 113.815 152.623 106.437L139.924 108.817C139.924 108.817 139.924 129.522 137.727 131.188C135.529 132.854 132.843 139.756 134.308 143.802C135.773 147.848 138.215 159.033 133.819 161.175C129.424 163.317 114.771 169.981 110.62 177.597C106.469 185.213 82.2924 179.739 81.3156 189.496C80.3388 199.254 96.9446 210.44 91.328 220.674C85.7113 230.907 83.025 233.049 99.3867 234.239C115.748 235.429 132.11 223.292 145.785 232.811C159.461 242.331 176.555 245.663 183.148 240.189C189.742 234.715 198.045 223.053 209.034 223.291C220.023 223.529 228.814 221.864 227.349 214.962C225.884 208.06 233.454 211.63 225.884 202.586C218.314 193.542 196.335 189.496 193.161 180.691C189.986 171.885 175.578 168.315 175.578 168.315C175.578 168.315 173.136 164.983 177.043 162.841C180.951 160.699 191.451 111.197 191.451 111.197Z" fill="#2F2E41"/>
<path id="Vector_10" d="M143.343 110.959L139.924 108.817C139.924 108.817 123.563 117.86 125.028 122.62C126.493 127.38 127.714 125.952 127.226 129.998C126.737 134.044 124.54 134.282 128.203 135.234C131.866 136.186 132.843 133.806 132.843 137.138C132.843 140.47 138.948 139.518 138.948 139.518L143.343 110.959Z" fill="#2F2E41"/>
<g id="Hand">
<path id="Vector_11" d="M201.708 123.334L207.08 155.701L229.303 173.789C229.303 173.789 244.688 182.357 237.361 187.83C230.035 193.304 221.61 178.43 221.61 178.43C221.61 178.43 199.388 170.576 196.702 160.342C194.015 150.109 187.452 132.133 187.452 132.133L201.708 123.334Z" fill="#FFB8B8"/>
<path id="Vector_12" d="M188.521 112.387L191.451 111.197C191.451 111.197 204.882 120.954 203.417 129.998C201.952 139.042 195.603 129.76 194.626 132.14C193.649 134.52 190.474 134.52 190.23 138.328C189.986 142.136 193.161 142.85 189.986 143.564C186.811 144.278 180.462 127.38 180.462 127.38L188.521 112.387Z" fill="#2F2E41"/>
</g>
<path id="Vector_13" d="M179.363 65.6208H149.082V82.5184H179.363V65.6208Z" fill="#FF6584"/>
<path id="Vector_14" d="M156.652 60.1361C160.564 60.1361 163.734 57.046 163.734 53.2343C163.734 49.4225 160.564 46.3325 156.652 46.3325C152.741 46.3325 149.57 49.4225 149.57 53.2343C149.57 57.046 152.741 60.1361 156.652 60.1361Z" fill="#FF6584"/>
<path id="Vector_15" d="M174.232 60.6114C178.144 60.6114 181.314 57.5214 181.314 53.7096C181.314 49.8978 178.144 46.8078 174.232 46.8078C170.321 46.8078 167.15 49.8978 167.15 53.7096C167.15 57.5214 170.321 60.6114 174.232 60.6114Z" fill="#FF6584"/>
<g id="balloon">
<path id="Vector_16" d="M331.838 130.666C318.712 143.571 287.027 153.798 273.785 141.006C260.543 128.214 270.757 97.2459 283.883 84.3404C290.187 78.1443 298.758 74.6423 307.711 74.6044C316.664 74.5666 325.266 77.9961 331.624 84.1387C337.983 90.2812 341.578 98.6337 341.618 107.359C341.658 116.084 338.14 124.468 331.838 130.666V130.666Z" fill="#6C63FF"/>
<path id="Vector_17" d="M273.805 145.491C273.609 144.37 273.058 143.336 272.229 142.536C271.401 141.735 270.335 141.207 269.183 141.026L273.765 136.521L278.387 140.986L273.805 145.491Z" fill="#6C63FF"/>
<path id="Vector_18" d="M276.086 143.598C274.93 143.245 273.877 142.629 273.013 141.801C272.15 140.974 271.501 139.958 271.12 138.837L272.047 138.542C272.379 139.519 272.946 140.405 273.699 141.126C274.453 141.847 275.371 142.384 276.379 142.691L276.086 143.598Z" fill="#2F2E41"/>
<path id="Vector_19" d="M272.562 141.765L229.027 184.547L229.719 185.216L273.255 142.434L272.562 141.765Z" fill="#2F2E41"/>
</g>
</g>
<defs>
<clipPath id="clip0">
<rect width="344" height="342" fill="white"/>
</clipPath>
</defs>
</svg>
