<svg width="766" height="609" viewBox="0 0 766 609" fill="none" xmlns="http://www.w3.org/2000/svg">
<g id="Frame">
<path id="Vector" d="M383 609C594.525 609 766 600.736 766 590.541C766 580.347 594.525 572.083 383 572.083C171.475 572.083 0 580.347 0 590.541C0 600.736 171.475 609 383 609Z" fill="white"/>
<path id="Vector_2" d="M652.65 454.443C652.65 471.562 648.508 488.297 640.747 502.531C632.987 516.765 621.956 527.859 609.051 534.411C596.145 540.962 581.944 542.676 568.244 539.336C554.543 535.997 541.959 527.753 532.081 515.648C522.204 503.543 515.477 488.12 512.752 471.329C510.027 454.539 511.426 437.135 516.771 421.319C522.117 405.503 531.169 391.985 542.784 382.474C554.399 372.963 568.054 367.887 582.023 367.887C591.304 367.857 600.5 370.075 609.08 374.414C617.66 378.753 625.455 385.128 632.019 393.171C638.582 401.215 643.783 410.769 647.324 421.284C650.865 431.799 652.675 443.068 652.65 454.443Z" fill="#FF6584"/>
<path id="Vector_3" d="M621.821 302.626C621.821 318.94 604.755 332.165 583.704 332.165C562.653 332.165 545.588 318.94 545.588 302.626C545.588 286.312 562.653 233.243 583.704 233.243C604.755 233.243 621.821 286.312 621.821 302.626Z" fill="#FF6584"/>
<path id="Vector_4" d="M583.424 405.326C606.642 405.326 625.464 382.259 625.464 353.804C625.464 325.349 606.642 302.282 583.424 302.282C560.206 302.282 541.384 325.349 541.384 353.804C541.384 382.259 560.206 405.326 583.424 405.326Z" fill="#FFB8B8"/>
<path id="Vector_5" d="M583.424 466.808C609.583 466.808 630.789 442.972 630.789 413.569C630.789 384.166 609.583 360.33 583.424 360.33C557.265 360.33 536.059 384.166 536.059 413.569C536.059 442.972 557.265 466.808 583.424 466.808Z" fill="white"/>
<path id="Vector_6" d="M618.738 377.161H594.095C591.413 377.161 588.842 375.855 586.946 373.532C585.05 371.208 583.984 368.056 583.984 364.77C583.984 362.818 584.361 360.894 585.082 359.155C585.804 357.415 586.851 355.909 588.138 354.759C589.425 353.61 590.916 352.849 592.488 352.539C594.06 352.229 595.67 352.379 597.186 352.977C615.402 360.16 632.77 364.811 642.841 347.622C642.841 351.501 642.217 355.342 641.006 358.926C639.795 362.509 638.019 365.766 635.781 368.509C633.543 371.252 630.886 373.428 627.961 374.912C625.037 376.397 621.903 377.161 618.738 377.161Z" fill="white"/>
<path id="Vector_7" d="M547.55 377.161H572.193C574.874 377.161 577.446 375.855 579.342 373.532C581.238 371.208 582.303 368.056 582.303 364.77C582.303 362.818 581.927 360.894 581.205 359.155C580.483 357.415 579.436 355.909 578.149 354.759C576.862 353.61 575.372 352.849 573.799 352.539C572.227 352.229 570.617 352.379 569.101 352.977C550.886 360.16 533.517 364.811 523.447 347.622C523.447 351.501 524.07 355.342 525.281 358.926C526.493 362.509 528.268 365.766 530.506 368.509C532.744 371.252 535.401 373.428 538.326 374.912C541.25 376.397 544.384 377.161 547.55 377.161Z" fill="white"/>
<path id="Vector_8" d="M583.144 372.008C587.478 372.008 590.991 367.703 590.991 362.391C590.991 357.08 587.478 352.774 583.144 352.774C578.81 352.774 575.296 357.08 575.296 362.391C575.296 367.703 578.81 372.008 583.144 372.008Z" fill="#FFB8B8"/>
<path id="Vector_9" d="M619.583 332.165H547.69C545.984 332.165 544.329 331.449 543.001 330.135C541.673 328.822 540.752 326.991 540.392 324.947L538.291 313.019C538.056 311.685 538.068 310.302 538.325 308.974C538.583 307.645 539.079 306.404 539.779 305.342C540.479 304.279 541.364 303.422 542.369 302.833C543.374 302.245 544.474 301.939 545.589 301.939H621.463C622.563 301.939 623.65 302.237 624.646 302.812C625.641 303.387 626.521 304.225 627.221 305.265C627.921 306.305 628.426 307.522 628.697 308.829C628.969 310.135 629.002 311.5 628.793 312.824L626.913 324.751C626.584 326.838 625.673 328.719 624.335 330.072C622.997 331.425 621.317 332.165 619.583 332.165Z" fill="white"/>
<path id="Vector_10" d="M596.036 249.73C601.608 249.73 606.126 244.194 606.126 237.365C606.126 230.536 601.608 225 596.036 225C590.464 225 585.946 230.536 585.946 237.365C585.946 244.194 590.464 249.73 596.036 249.73Z" fill="white"/>
<path id="Vector_11" d="M583.704 384.411C592.372 384.411 599.399 382.549 599.399 380.252C599.399 377.955 592.372 376.093 583.704 376.093C575.036 376.093 568.009 377.955 568.009 380.252C568.009 382.549 575.036 384.411 583.704 384.411Z" fill="#FFB8B8"/>
<path id="Vector_12" d="M650.492 475.739C648.69 484.488 645.773 492.834 641.848 500.469H522.197C518.272 492.834 515.355 484.488 513.553 475.739H650.492Z" fill="#3F3D56"/>
<path id="Vector_13" d="M599.96 510.086H564.085V466.121H599.96L599.96 510.086ZM569.691 503.217H594.354V472.991H569.691V503.217Z" fill="white"/>
<path id="Vector_14" d="M565.206 533.443H556.798V576.034H565.206V533.443Z" fill="#FF6584"/>
<path id="Vector_15" d="M606.686 533.443H598.278V576.034H606.686V533.443Z" fill="#FF6584"/>
<path id="Vector_16" d="M612.852 581.043V560.921H593.794L598.379 580.843H598.278V591.834H620.139C620.138 589.277 619.41 586.801 618.08 584.831C616.75 582.861 614.901 581.522 612.852 581.043Z" fill="#3F3D56"/>
<path id="Vector_17" d="M551.193 581.043V560.921H570.251L565.666 580.843H565.767V591.834H543.906C543.907 589.277 544.635 586.801 545.965 584.831C547.295 582.861 549.144 581.522 551.193 581.043Z" fill="#3F3D56"/>
<g id="SantaKeHath">
<path id="Vector_18" d="M659.056 396.373L651.928 390.908L633.497 427.016L640.625 432.481L659.056 396.373Z" fill="#FF6584"/>
<path id="Vector_19" d="M664.986 377.055C661.76 373.163 658.285 377.173 655.733 381.794C655.103 379.621 654.207 378.154 653.551 378.361C652.769 378.609 652.626 381.141 653.233 384.018C653.366 384.654 653.533 385.279 653.733 385.888C652.619 388.434 651.943 390.444 651.943 390.444L648.426 395.262L658.412 403.21L660.856 396.881C660.856 396.881 671.065 384.389 664.986 377.055Z" fill="#3F3D56"/>
</g>
<path id="Vector_20" d="M497.862 461.053L504.99 466.518L523.421 430.41L516.293 424.945L497.862 461.053Z" fill="#FF6584"/>
<path id="Vector_21" d="M491.932 480.371C495.158 484.263 498.633 480.253 501.185 475.632C501.815 477.806 502.711 479.272 503.367 479.065C504.149 478.817 504.292 476.285 503.685 473.408C503.552 472.772 503.385 472.148 503.185 471.538C504.299 468.992 504.975 466.982 504.975 466.982L508.492 462.165L498.506 454.216L496.063 460.545C496.063 460.545 485.853 473.037 491.932 480.371Z" fill="#3F3D56"/>
<g id="Tree">
<path id="Vector_22" d="M405.745 542.42L345.041 413.563H368.711L316.338 302.393H354.331L299.128 185.213H327.53L255.373 32.0462L183.216 185.213H211.617L156.415 302.393H194.408L142.036 413.563H165.705L105 542.42H224.448V591.267H275.302V542.42H405.745Z" fill="#0CBD68"/>
<path id="Vector_23" d="M331.296 334.567C338.265 334.567 343.914 327.644 343.914 319.103C343.914 310.563 338.265 303.64 331.296 303.64C324.328 303.64 318.678 310.563 318.678 319.103C318.678 327.644 324.328 334.567 331.296 334.567Z" fill="#66FF63"/>
<path id="Vector_24" d="M322.961 318.612L319.693 312.409L320.356 311.884L323.166 317.22L328.935 311.967L334.094 318.198L339.165 312.793L343.815 319.345L343.22 319.98L339.088 314.156L334.061 319.515L328.863 313.236L322.961 318.612Z" fill="#1F1F1F"/>
<path id="Vector_25" d="M342.033 327.585L337.868 321.715L332.838 327.076L327.643 320.801L321.749 326.168L318.511 320.02L319.088 319.564L321.927 324.956L327.705 319.694L332.867 325.929L337.935 320.526L342.552 327.032L342.033 327.585Z" fill="#1F1F1F"/>
<path id="Vector_26" d="M332.017 292.522L331.359 304.092L332.146 304.159L332.803 292.589L332.017 292.522Z" fill="#575A89"/>
<path id="Vector_27" d="M162.93 341.305C169.898 341.305 175.547 334.381 175.547 325.841C175.547 317.301 169.898 310.377 162.93 310.377C155.961 310.377 150.312 317.301 150.312 325.841C150.312 334.381 155.961 341.305 162.93 341.305Z" fill="#F83B3B"/>
<path id="Vector_28" d="M154.593 325.35L151.327 319.146L151.989 318.622L154.799 323.958L160.569 318.704L165.727 324.936L170.799 319.531L175.448 326.083L174.854 326.717L170.721 320.894L165.694 326.252L160.496 319.974L154.593 325.35Z" fill="#1F1F1F"/>
<path id="Vector_29" d="M173.667 334.322L169.501 328.452L164.47 333.813L159.276 327.538L153.382 332.905L150.145 326.758L150.722 326.301L153.561 331.693L159.339 326.432L164.501 332.666L169.568 327.264L174.185 333.769L173.667 334.322Z" fill="#1F1F1F"/>
<path id="Vector_30" d="M163.649 299.261L162.991 310.831L163.778 310.898L164.436 299.328L163.649 299.261Z" fill="#575A89"/>
<path id="Vector_31" d="M242.646 173.707C249.615 173.707 255.264 166.783 255.264 158.243C255.264 149.703 249.615 142.779 242.646 142.779C235.677 142.779 230.028 149.703 230.028 158.243C230.028 166.783 235.677 173.707 242.646 173.707Z" fill="#F7FC1C"/>
<path id="Vector_32" d="M234.31 157.752L231.043 151.548L231.706 151.024L234.516 156.36L240.285 151.107L245.443 157.338L250.515 151.932L255.165 158.485L254.57 159.119L250.437 153.296L245.41 158.654L240.213 152.375L234.31 157.752Z" fill="#1F1F1F"/>
<path id="Vector_33" d="M253.383 166.725L249.217 160.855L244.187 166.215L238.993 159.941L233.098 165.308L229.861 159.16L230.438 158.703L233.277 164.095L239.055 158.833L244.217 165.069L249.285 159.666L253.902 166.172L253.383 166.725Z" fill="#1F1F1F"/>
<path id="Vector_34" d="M243.366 131.662L242.709 143.232L243.496 143.299L244.153 131.729L243.366 131.662Z" fill="#575A89"/>
<path id="Vector_35" d="M319.614 449.948C326.582 449.948 332.232 443.025 332.232 434.485C332.232 425.944 326.582 419.021 319.614 419.021C312.645 419.021 306.996 425.944 306.996 434.485C306.996 443.025 312.645 449.948 319.614 449.948Z" fill="#EF4D4D"/>
<path id="Vector_36" d="M311.278 433.993L308.011 427.79L308.674 427.266L311.484 432.602L317.252 427.348L322.411 433.58L327.482 428.174L332.133 434.726L331.537 435.361L327.405 429.538L322.378 434.896L317.181 428.617L311.278 433.993Z" fill="#1F1F1F"/>
<path id="Vector_37" d="M330.351 442.966L326.185 437.096L321.155 442.457L315.96 436.182L310.066 441.55L306.828 435.401L307.405 434.945L310.245 440.337L316.023 435.075L321.184 441.31L326.252 435.908L330.87 442.413L330.351 442.966Z" fill="#1F1F1F"/>
<path id="Vector_38" d="M320.334 407.904L319.676 419.473L320.463 419.541L321.121 407.971L320.334 407.904Z" fill="#1F1F1F"/>
<path id="Vector_39" d="M177.361 507.218C184.33 507.218 189.979 500.295 189.979 491.754C189.979 483.214 184.33 476.291 177.361 476.291C170.392 476.291 164.743 483.214 164.743 491.754C164.743 500.295 170.392 507.218 177.361 507.218Z" fill="#F7FC1C"/>
<path id="Vector_40" d="M169.025 491.263L165.758 485.06L166.421 484.535L169.231 489.871L175 484.618L180.158 490.85L185.23 485.444L189.88 491.996L189.285 492.631L185.152 486.807L180.125 492.166L174.928 485.887L169.025 491.263Z" fill="#1F1F1F"/>
<path id="Vector_41" d="M188.098 500.236L183.932 494.366L178.902 499.727L173.707 493.452L167.813 498.82L164.576 492.671L165.153 492.215L167.992 497.607L173.77 492.345L178.932 498.58L184 493.177L188.617 499.683L188.098 500.236Z" fill="#1F1F1F"/>
<path id="Vector_42" d="M178.08 465.175L177.423 476.744L178.209 476.812L178.867 465.242L178.08 465.175Z" fill="#575A89"/>
<path id="Vector_43" d="M277.694 263.822C284.663 263.822 290.312 256.899 290.312 248.358C290.312 239.818 284.663 232.895 277.694 232.895C270.725 232.895 265.076 239.818 265.076 248.358C265.076 256.899 270.725 263.822 277.694 263.822Z" fill="#4F60FF"/>
<path id="Vector_44" d="M269.358 247.868L266.09 241.664L266.754 241.14L269.564 246.475L275.332 241.222L280.491 247.454L285.562 242.048L290.213 248.601L289.618 249.234L285.485 243.411L280.458 248.769L275.261 242.491L269.358 247.868Z" fill="#1F1F1F"/>
<path id="Vector_45" d="M288.431 256.84L284.265 250.97L279.235 256.33L274.04 250.055L268.146 255.423L264.908 249.276L265.486 248.819L268.325 254.21L274.103 248.949L279.264 255.184L284.332 249.781L288.95 256.287L288.431 256.84Z" fill="#1F1F1F"/>
<path id="Vector_46" d="M278.414 221.777L277.757 233.347L278.543 233.414L279.201 221.845L278.414 221.777Z" fill="#575A89"/>
<path id="Vector_47" d="M241.959 416.26C248.928 416.26 254.577 409.337 254.577 400.797C254.577 392.256 248.928 385.333 241.959 385.333C234.99 385.333 229.341 392.256 229.341 400.797C229.341 409.337 234.99 416.26 241.959 416.26Z" fill="#EE39FE"/>
<path id="Vector_48" d="M233.623 400.305L230.356 394.102L231.018 393.577L233.829 398.914L239.598 393.66L244.756 399.892L249.828 394.486L254.478 401.038L253.883 401.673L249.75 395.85L244.723 401.208L239.526 394.929L233.623 400.305Z" fill="#1F1F1F"/>
<path id="Vector_49" d="M252.696 409.278L248.53 403.408L243.5 408.769L238.305 402.494L232.411 407.862L229.174 401.713L229.751 401.257L232.59 406.649L238.368 401.387L243.53 407.622L248.598 402.22L253.215 408.725L252.696 409.278Z" fill="#1F1F1F"/>
<path id="Vector_50" d="M242.679 374.216L242.022 385.785L242.808 385.853L243.466 374.283L242.679 374.216Z" fill="#575A89"/>
<path id="Vector_51" d="M265.301 47.1982L254.554 37.3157L243.564 46.7868L247.913 31.2076L237.167 21.3252L250.6 21.5792L254.949 6L258.903 21.7365L272.337 21.9905L261.346 31.4616L265.301 47.1982Z" fill="#F1D161"/>
<path id="Vector_52" d="M255.409 124.067C233.605 124.067 217.345 113.485 217.103 113.324L217.759 111.844C218.115 112.08 253.759 135.244 290.104 112.15L290.737 113.645C279.821 120.568 267.699 124.144 255.409 124.067Z" fill="#3F3D56"/>
<path id="Vector_53" d="M259.778 211.838C240.829 211.72 221.975 208.544 203.702 202.394L204.104 200.783C204.671 200.995 261.212 221.767 306.586 200.8L307.071 202.376C291.715 209.472 275.097 211.838 259.778 211.838Z" fill="#3F3D56"/>
<path id="Vector_54" d="M250.376 303.36C238.541 303.384 226.721 302.352 215.009 300.274C183.961 294.691 165.628 283.423 165.446 283.31L166.069 281.808C166.249 281.921 184.428 293.084 215.275 298.619C243.743 303.728 289.128 304.949 343.69 281.764L344.14 283.355C308.201 298.627 276.213 303.36 250.376 303.36Z" fill="#3F3D56"/>
<path id="Vector_55" d="M258.109 386.048C245.726 386.046 233.356 385.094 221.07 383.197C187.728 378.041 165.726 367.643 165.508 367.538L166.008 365.969C166.225 366.072 188.101 376.407 221.286 381.533C251.897 386.26 298.667 387.396 347.65 365.961L348.111 367.546C315.837 381.672 284.522 386.048 258.109 386.048Z" fill="#3F3D56"/>
<path id="Vector_56" d="M263.475 480.785C248.227 480.753 232.997 479.501 217.882 477.037C175.966 470.259 145.924 456.599 145.625 456.462L146.108 454.884C146.405 455.021 176.327 468.624 218.096 475.373C256.614 481.596 313.376 483.096 365.047 454.904L365.606 456.442C331.545 475.026 295.302 480.785 263.475 480.785Z" fill="#3F3D56"/>
<rect id="Rectangle 1" x="217.135" y="540" width="61" height="51" fill="#932E2E"/>
</g>
<g id="Gifts">
<path id="Vector-big" d="M423 518.509H361V589.509H423V518.509Z" fill="#FF636C"/>
<path id="Vector_57" d="M399 516.509H385V591.509H399V516.509Z" fill="#3F3D56"/>
<path id="Vector_58" d="M390.124 500.867C394.331 505.292 393.043 515.589 393.043 515.589C393.043 515.589 384.934 518.711 380.727 514.287C376.52 509.862 377.808 499.565 377.808 499.565C377.808 499.565 385.917 496.443 390.124 500.867Z" fill="#3F3D56"/>
<path id="Vector_59" d="M404.09 513.314C400.492 518.484 392.087 516.937 392.087 516.937C392.087 516.937 389.513 507.009 393.111 501.839C396.708 496.67 405.114 498.217 405.114 498.217C405.114 498.217 407.687 508.145 404.09 513.314Z" fill="#3F3D56"/>
<path id="Vector_60" d="M490 537.509H443V589.509H490V537.509Z" fill="#FF6363"/>
<path id="Vector_61" d="M471 535.509H462V591.509H471V535.509Z" fill="#3F3D56"/>
<path id="Vector_62" d="M464.812 525.337C467.777 528.747 466.869 536.684 466.869 536.684C466.869 536.684 461.153 539.091 458.188 535.68C455.223 532.27 456.131 524.333 456.131 524.333C456.131 524.333 461.847 521.926 464.812 525.337Z" fill="#3F3D56"/>
<path id="Vector_63" d="M475.577 534.702C472.905 538.481 466.662 537.35 466.662 537.35C466.662 537.35 464.751 530.093 467.423 526.315C470.095 522.536 476.338 523.667 476.338 523.667C476.338 523.667 478.249 530.924 475.577 534.702Z" fill="#3F3D56"/>
<path id="Vector_64" d="M101 537.509H55V589.509H101V537.509Z" fill="#FF6363"/>
<path id="Vector_65" d="M83 535.509H73V591.509H83V535.509Z" fill="#3F3D56"/>
<path id="Vector_66" d="M76.6129 525.337C79.8477 528.747 78.8571 536.684 78.8571 536.684C78.8571 536.684 72.6218 539.091 69.3871 535.68C66.1523 532.27 67.1429 524.333 67.1429 524.333C67.1429 524.333 73.3782 521.926 76.6129 525.337Z" fill="#3F3D56"/>
<path id="Vector_67" d="M86.5773 534.702C83.9054 538.481 77.6621 537.35 77.6621 537.35C77.6621 537.35 75.7509 530.093 78.4227 526.315C81.0946 522.536 87.3378 523.667 87.3378 523.667C87.3378 523.667 89.2491 530.924 86.5773 534.702Z" fill="#3F3D56"/>
</g>
</g>
</svg>
