<svg width="224" height="225" viewBox="0 0 224 225" fill="none" xmlns="http://www.w3.org/2000/svg">
<g id="Diya">
<g id="Vector 5" style="mix-blend-mode:multiply">
<path d="M223 127L192.828 116.769C141.588 99.3931 86.0944 99.1097 34.6796 115.961L1 127C18.817 256.606 206.701 256.806 223 127Z" fill="url(#paint0_linear)"/>
<path d="M1 127L44.833 139.367C89.9592 152.098 137.756 151.882 182.766 138.744L223 127M1 127V127C18.817 256.606 206.701 256.806 223 127V127M1 127L34.6796 115.961C86.0944 99.1098 141.588 99.3931 192.828 116.769L223 127" stroke="black"/>
</g>
<path id="Vector 9" d="M9 123.114L2 126.714L9 129.8L14.5 132.886L20.5 135.457L28 138.543L36 141.629L43 144.2L49.5 146.257L59.5 148.829L69 150.886L77.5 152.943L87 153.971L96 154.486L107.5 155L128 154.486L143.5 152.943L157 150.886L170.5 147.286L187 142.657L206 135.971L215.5 130.829L223 126.714L212.5 123.114L202 118.486L189.5 113.857L178.5 109.743L170.5 108.2L161.5 106.143L154 104.086L138 102.029L124.5 101H106.5H96L86 102.029L77.5 103.057L69 104.086L59.5 106.143L51.5 108.2L41 111.286L32.5 113.857L19.5 118.486L9 123.114Z" fill="#E7B160"/>
<path id="Vector 7" d="M0.5 126.5L2.64584 127.654C71.4908 164.677 154.376 164.431 223 127V127" stroke="black"/>
<path id="Vector 8" d="M2 126L7.23875 123.597C73.1402 93.3669 148.92 93.2361 214.925 123.239L221 126" stroke="black"/>
</g>
<g id="flame">
<ellipse id="Ellipse 2" cx="112" cy="63.5" rx="10" ry="63.5" fill="#FDBF63"/>
<ellipse id="Ellipse 1" cx="112" cy="70.2434" rx="7.33333" ry="56.7566" fill="#FDEC55"/>
</g>
<defs>
<linearGradient id="paint0_linear" x1="115.979" y1="971" x2="116.07" y2="90" gradientUnits="userSpaceOnUse">
<stop stop-color="#B5853E"/>
<stop offset="0.777529" stop-color="white" stop-opacity="0"/>
<stop offset="1" stop-color="#FDBF63"/>
</linearGradient>
</defs>
</svg>
